<svg xmlns="http://www.w3.org/2000/svg" viewBox="0 0 71 71" shape-rendering="crispEdges"><path stroke="#1a2422" d="M1 1.5h7m2 0h2m1 0h3m5 0h3m1 0h2m2 0h2m1 0h1m1 0h2m6 0h1m4 0h3m1 0h1m1 0h2m1 0h1m2 0h3m1 0h7M1 2.5h1m5 0h1m1 0h4m1 0h3m1 0h2m2 0h5m1 0h6m1 0h10m3 0h1m1 0h3m1 0h2m7 0h1m5 0h1M1 3.5h1m1 0h3m1 0h1m2 0h3m1 0h2m4 0h1m2 0h5m1 0h1m1 0h2m1 0h1m1 0h1m1 0h2m2 0h3m2 0h1m1 0h2m3 0h1m1 0h1m1 0h2m3 0h1m1 0h3m1 0h1M1 4.5h1m1 0h3m1 0h1m1 0h1m2 0h2m1 0h1m4 0h1m1 0h3m1 0h1m1 0h1m3 0h6m1 0h1m3 0h3m5 0h2m2 0h1m1 0h2m2 0h1m1 0h1m1 0h3m1 0h1M1 5.5h1m1 0h3m1 0h1m2 0h1m1 0h3m2 0h1m1 0h2m4 0h1m1 0h2m1 0h1m1 0h9m1 0h1m1 0h2m5 0h2m4 0h1m1 0h1m1 0h1m1 0h1m1 0h3m1 0h1M1 6.5h1m5 0h1m1 0h1m2 0h4m4 0h1m1 0h2m2 0h1m4 0h3m3 0h2m4 0h1m1 0h2m1 0h3m1 0h5m1 0h2m3 0h1m5 0h1M1 7.5h7m1 0h1m1 0h1m1 0h1m1 0h1m1 0h1m1 0h1m1 0h1m1 0h1m1 0h1m1 0h1m1 0h1m1 0h1m1 0h1m1 0h1m1 0h1m1 0h1m1 0h1m1 0h1m1 0h1m1 0h1m1 0h1m1 0h1m1 0h1m1 0h1m1 0h1m1 0h1m1 0h1m1 0h7M10 8.5h6m2 0h2m1 0h6m1 0h4m1 0h1m3 0h2m6 0h1m2 0h1m1 0h1m4 0h1m1 0h1m2 0h2M1 9.5h5m1 0h4m1 0h2m2 0h1m4 0h1m2 0h2m2 0h1m1 0h1m2 0h5m1 0h5m2 0h1m3 0h1m1 0h3m1 0h2m2 0h3m1 0h1m1 0h1m1 0h1M2 10.5h1m9 0h1m4 0h1m2 0h2m2 0h1m2 0h2m1 0h3m1 0h4m3 0h1m5 0h2m1 0h2m6 0h2m2 0h2m3 0h1m1 0h1M2 11.5h1m3 0h4m1 0h2m1 0h1m1 0h2m12 0h3m1 0h1m1 0h1m1 0h1m5 0h2m3 0h1m2 0h1m3 0h1m1 0h2m1 0h2m2 0h1m2 0h2M2 12.5h1m1 0h2m2 0h1m5 0h1m3 0h1m3 0h2m1 0h1m6 0h4m2 0h1m1 0h1m3 0h1m4 0h2m2 0h4m2 0h4m1 0h2m2 0h1M3 13.5h1m3 0h1m3 0h1m1 0h5m1 0h1m2 0h2m1 0h1m4 0h1m2 0h1m1 0h2m3 0h1m2 0h2m1 0h3m3 0h1m1 0h1m3 0h2m1 0h1m2 0h1m1 0h4M2 14.5h1m1 0h1m3 0h2m1 0h4m2 0h1m1 0h2m3 0h3m1 0h1m2 0h3m4 0h2m2 0h2m4 0h2m1 0h3m1 0h2m1 0h3m6 0h1M4 15.5h1m1 0h2m1 0h3m2 0h3m3 0h2m3 0h2m1 0h5m1 0h1m1 0h1m3 0h5m3 0h1m1 0h1m3 0h1m1 0h1m1 0h1m3 0h1m3 0h4M1 16.5h1m2 0h1m1 0h1m1 0h2m4 0h1m1 0h1m2 0h2m3 0h1m1 0h1m4 0h1m1 0h1m1 0h1m1 0h1m2 0h1m1 0h2m1 0h4m1 0h1m4 0h2m4 0h1m1 0h2m1 0h2M1 17.5h1m1 0h3m1 0h3m1 0h4m1 0h1m1 0h1m3 0h1m1 0h1m1 0h1m1 0h1m3 0h1m3 0h1m5 0h1m2 0h1m6 0h1m1 0h5m1 0h3m1 0h1m2 0h2M1 18.5h2m2 0h1m3 0h2m3 0h6m3 0h2m1 0h1m1 0h1m3 0h1m3 0h4m3 0h12m1 0h1m2 0h2m1 0h3m1 0h4M1 19.5h5m1 0h7m2 0h1m1 0h2m5 0h2m3 0h1m1 0h4m3 0h1m6 0h1m2 0h3m3 0h1m3 0h3m1 0h2m2 0h2M4 20.5h1m4 0h1m2 0h1m2 0h3m3 0h5m1 0h1m3 0h1m1 0h2m1 0h3m2 0h1m1 0h2m1 0h2m1 0h2m1 0h1m9 0h1m3 0h3M1 21.5h1m3 0h3m1 0h1m1 0h1m2 0h1m1 0h5m1 0h1m1 0h5m1 0h2m4 0h1m1 0h1m1 0h1m1 0h1m2 0h2m1 0h2m1 0h2m1 0h3m1 0h4m1 0h1m2 0h3M1 22.5h4m1 0h1m1 0h2m1 0h2m1 0h1m2 0h3m1 0h2m2 0h1m5 0h1m1 0h4m1 0h3m5 0h1m1 0h1m5 0h4m2 0h3m1 0h4M3 23.5h1m3 0h2m1 0h2m1 0h1m3 0h1m1 0h1m2 0h2m2 0h1m1 0h4m1 0h4m1 0h1m3 0h1m1 0h1m3 0h3m2 0h4m5 0h1m3 0h2M2 24.5h1m1 0h3m2 0h4m1 0h2m1 0h3m1 0h1m1 0h4m1 0h4m1 0h2m6 0h3m1 0h1m2 0h1m1 0h2m1 0h3m1 0h1m1 0h3m1 0h1m1 0h1M3 25.5h1m1 0h3m3 0h1m3 0h2m3 0h1m1 0h4m3 0h9m1 0h2m1 0h2m1 0h1m1 0h1m2 0h1m1 0h4m1 0h2m1 0h1m1 0h1m1 0h2m1 0h3M4 26.5h1m1 0h1m1 0h1m2 0h1m4 0h1m1 0h3m4 0h4m2 0h1m3 0h1m1 0h1m3 0h2m1 0h1m1 0h1m1 0h1m1 0h2m3 0h1m2 0h1m2 0h1m1 0h1m3 0h1M4 27.5h1m2 0h1m1 0h2m2 0h1m2 0h1m1 0h1m1 0h1m4 0h3m2 0h2m2 0h1m1 0h1m5 0h3m1 0h2m1 0h1m1 0h1m1 0h1m1 0h1m2 0h4m2 0h1m2 0h3M1 28.5h1m1 0h2m1 0h1m2 0h3m1 0h2m1 0h1m3 0h1m1 0h2m3 0h1m4 0h1m1 0h5m10 0h1m1 0h1m2 0h3m2 0h3m4 0h3M1 29.5h1m2 0h1m2 0h4m1 0h1m1 0h2m4 0h3m2 0h1m2 0h1m1 0h2m1 0h1m1 0h1m4 0h5m2 0h6m1 0h1m3 0h5m2 0h4M2 30.5h5m3 0h1m3 0h2m1 0h3m4 0h2m2 0h1m1 0h4m1 0h1m1 0h3m1 0h1m1 0h2m4 0h7m3 0h1m2 0h1m1 0h2m1 0h1M3 31.5h2m1 0h2m2 0h1m1 0h2m2 0h1m1 0h7m2 0h1m2 0h4m2 0h1m3 0h2m1 0h2m1 0h1m1 0h1m1 0h1m4 0h1m1 0h1m3 0h1m2 0h1m1 0h1m1 0h1M1 32.5h3m4 0h6m1 0h1m1 0h1m1 0h2m5 0h2m3 0h1m1 0h1m2 0h2m1 0h1m2 0h2m1 0h1m2 0h1m1 0h1m1 0h2m1 0h1m1 0h1m2 0h2m2 0h1m1 0h3M1 33.5h9m3 0h3m1 0h2m5 0h2m1 0h1m4 0h7m3 0h1m1 0h3m4 0h1m2 0h2m1 0h2m1 0h7m1 0h1M1 34.5h2m2 0h1m3 0h1m2 0h2m2 0h2m3 0h1m3 0h2m3 0h2m1 0h1m3 0h1m1 0h1m3 0h1m2 0h6m1 0h2m1 0h1m2 0h3m3 0h1m1 0h3M1 35.5h1m1 0h1m1 0h1m1 0h1m1 0h1m2 0h4m2 0h2m1 0h6m4 0h1m1 0h1m1 0h1m1 0h1m1 0h4m1 0h1m2 0h1m7 0h1m1 0h3m1 0h1m1 0h1m1 0h2m1 0h2M1 36.5h1m1 0h3m3 0h1m2 0h2m1 0h2m1 0h1m4 0h1m1 0h1m1 0h2m2 0h3m3 0h1m1 0h1m2 0h3m3 0h1m1 0h1m6 0h1m2 0h2m3 0h1m2 0h2M1 37.5h1m1 0h1m1 0h6m3 0h1m1 0h5m5 0h3m2 0h9m1 0h3m2 0h1m2 0h1m1 0h3m1 0h5m1 0h5m2 0h1M2 38.5h5m2 0h2m1 0h1m3 0h2m1 0h2m3 0h4m2 0h1m1 0h2m3 0h3m1 0h3m3 0h2m1 0h2m1 0h3m1 0h1m8 0h3M3 39.5h2m1 0h7m3 0h1m1 0h2m2 0h2m1 0h1m3 0h2m1 0h3m3 0h1m1 0h1m2 0h1m1 0h1m2 0h2m2 0h5m1 0h1m1 0h2m1 0h1m2 0h2M1 40.5h2m1 0h2m4 0h1m2 0h1m1 0h2m1 0h2m1 0h1m2 0h2m5 0h2m1 0h1m2 0h2m4 0h2m3 0h3m2 0h3m2 0h2m3 0h1m1 0h2M6 41.5h3m3 0h6m2 0h1m2 0h1m1 0h3m4 0h4m2 0h1m3 0h4m1 0h1m1 0h2m1 0h2m8 0h1m4 0h3M1 42.5h6m2 0h5m2 0h3m6 0h1m1 0h2m2 0h7m2 0h2m2 0h1m1 0h1m4 0h1m3 0h3m2 0h1m2 0h2m2 0h2M2 43.5h6m3 0h1m1 0h1m1 0h1m2 0h3m3 0h2m4 0h2m2 0h2m1 0h1m4 0h2m1 0h1m1 0h3m3 0h3m5 0h2m3 0h2m1 0h1M1 44.5h1m2 0h1m3 0h4m1 0h2m1 0h4m1 0h3m3 0h4m2 0h4m8 0h1m3 0h1m1 0h3m1 0h1m4 0h4m3 0h2M1 45.5h3m3 0h2m2 0h3m4 0h1m1 0h1m2 0h3m1 0h2m2 0h1m1 0h2m4 0h1m2 0h1m2 0h4m1 0h2m6 0h1m3 0h1m2 0h3M2 46.5h1m3 0h1m3 0h2m1 0h1m2 0h1m1 0h3m1 0h1m1 0h3m1 0h1m1 0h1m2 0h2m1 0h4m3 0h1m2 0h2m2 0h3m2 0h2m2 0h1m4 0h2m2 0h1M1 47.5h1m1 0h2m2 0h1m6 0h2m5 0h2m1 0h2m1 0h3m1 0h1m1 0h1m1 0h3m2 0h2m1 0h1m4 0h1m1 0h1m4 0h1m1 0h1m5 0h1m5 0h1M3 48.5h3m2 0h2m1 0h2m2 0h1m1 0h2m1 0h1m6 0h2m2 0h1m9 0h1m1 0h1m1 0h6m2 0h2m2 0h2m3 0h5M2 49.5h1m3 0h2m2 0h2m1 0h1m1 0h2m1 0h2m2 0h1m2 0h2m4 0h3m1 0h2m1 0h1m1 0h2m2 0h1m3 0h1m2 0h1m1 0h1m1 0h3m1 0h2m1 0h2m1 0h2m1 0h1M2 50.5h1m3 0h1m2 0h1m2 0h5m1 0h3m3 0h3m2 0h1m1 0h2m5 0h3m2 0h1m2 0h5m1 0h3m3 0h7m1 0h2m1 0h1M6 51.5h3m1 0h4m1 0h1m2 0h5m1 0h3m4 0h2m2 0h1m1 0h2m4 0h2m1 0h1m1 0h3m7 0h2m2 0h1m1 0h1m2 0h2M1 52.5h3m1 0h1m5 0h1m1 0h2m2 0h1m3 0h2m1 0h4m1 0h3m1 0h2m1 0h1m2 0h1m2 0h2m2 0h4m4 0h1m1 0h1m1 0h1m1 0h3m3 0h3M3 53.5h2m1 0h3m2 0h2m2 0h1m1 0h1m2 0h1m4 0h2m2 0h1m3 0h5m1 0h1m2 0h2m4 0h2m1 0h1m2 0h3m1 0h3m1 0h1m1 0h1m1 0h1M1 54.5h1m1 0h1m8 0h5m1 0h2m5 0h1m1 0h1m2 0h1m6 0h4m3 0h1m10 0h1m1 0h2m3 0h1m4 0h2M2 55.5h4m1 0h2m2 0h4m2 0h1m1 0h5m2 0h2m1 0h2m2 0h1m2 0h1m1 0h1m3 0h2m1 0h1m2 0h2m2 0h5m1 0h1m1 0h1m1 0h1m2 0h4M1 56.5h2m1 0h1m1 0h1m1 0h1m1 0h6m2 0h2m5 0h2m1 0h2m1 0h2m1 0h1m1 0h1m1 0h1m1 0h1m1 0h5m1 0h3m2 0h3m1 0h1m2 0h2m1 0h1M3 57.5h5m5 0h1m1 0h3m2 0h3m1 0h3m1 0h3m4 0h1m1 0h1m1 0h1m1 0h3m1 0h1m1 0h1m2 0h1m1 0h3m1 0h2m4 0h1m4 0h1M1 58.5h2m1 0h1m1 0h1m1 0h3m6 0h2m5 0h3m1 0h1m2 0h2m2 0h1m1 0h1m2 0h2m4 0h3m1 0h3m1 0h2m1 0h1m2 0h1m2 0h1m1 0h5M1 59.5h1m1 0h1m1 0h3m1 0h1m2 0h1m2 0h3m2 0h1m1 0h1m1 0h2m1 0h2m1 0h2m1 0h1m4 0h1m3 0h1m1 0h2m1 0h3m3 0h1m4 0h1m4 0h3m1 0h1m1 0h1M1 60.5h1m6 0h1m1 0h2m2 0h1m2 0h1m3 0h3m3 0h1m1 0h2m2 0h2m1 0h2m6 0h2m3 0h1m1 0h2m2 0h2m1 0h2m2 0h1m2 0h1m2 0h1M1 61.5h1m2 0h2m1 0h3m2 0h2m1 0h1m3 0h2m1 0h1m1 0h3m6 0h5m1 0h1m1 0h1m1 0h1m2 0h3m1 0h3m4 0h1m3 0h5m1 0h3M9 62.5h1m2 0h1m1 0h2m2 0h2m2 0h1m2 0h2m1 0h1m1 0h4m3 0h1m2 0h1m2 0h4m2 0h2m1 0h6m3 0h1m3 0h2M1 63.5h7m1 0h1m1 0h1m2 0h1m1 0h1m1 0h1m5 0h6m1 0h1m1 0h1m1 0h1m1 0h1m4 0h3m2 0h2m1 0h1m1 0h1m4 0h1m3 0h1m1 0h1m1 0h1m2 0h1M1 64.5h1m5 0h1m2 0h1m1 0h1m1 0h1m1 0h3m1 0h1m3 0h1m1 0h1m3 0h2m1 0h1m3 0h1m2 0h1m1 0h2m1 0h1m1 0h1m1 0h2m1 0h1m3 0h3m1 0h2m3 0h4M1 65.5h1m1 0h3m1 0h1m1 0h1m1 0h3m3 0h2m1 0h1m7 0h1m3 0h7m2 0h1m1 0h1m1 0h1m4 0h2m1 0h1m1 0h1m3 0h1m1 0h6m1 0h1M1 66.5h1m1 0h3m1 0h1m1 0h1m1 0h1m1 0h5m1 0h4m1 0h3m1 0h1m1 0h2m2 0h1m1 0h1m1 0h3m1 0h1m3 0h4m2 0h2m2 0h1m1 0h1m1 0h2m1 0h1m2 0h2M1 67.5h1m1 0h3m1 0h1m1 0h4m5 0h5m1 0h3m1 0h1m1 0h1m1 0h3m1 0h3m3 0h1m4 0h1m1 0h3m2 0h1m2 0h1m1 0h2m1 0h1m2 0h1m1 0h1M1 68.5h1m5 0h1m1 0h1m1 0h1m2 0h1m1 0h1m4 0h2m2 0h1m1 0h4m4 0h3m1 0h2m1 0h3m1 0h5m9 0h2m1 0h1m2 0h2m1 0h1M1 69.5h7m1 0h2m1 0h4m1 0h1m1 0h2m1 0h4m2 0h1m4 0h1m2 0h2m1 0h2m1 0h2m1 0h1m1 0h1m1 0h1m4 0h1m1 0h1m1 0h1m1 0h2m5 0h1"/></svg>
